<svg xmlns="http://www.w3.org/2000/svg" version="1.1" xmlns:xlink="http://www.w3.org/1999/xlink" xmlns:svgjs="http://svgjs.dev/svgjs" width="1000" height="348" viewBox="0 0 1000 348"><g transform="matrix(1,0,0,1,-0.6060606060606233,-0.18372654617550666)"><svg viewBox="0 0 396 138" data-background-color="#ffffff" preserveAspectRatio="xMidYMid meet" height="348" width="1000" xmlns="http://www.w3.org/2000/svg" xmlns:xlink="http://www.w3.org/1999/xlink"><g id="tight-bounds" transform="matrix(1,0,0,1,0.2400000000000091,0.07285707865580093)"><svg viewBox="0 0 395.52 137.8542858426884" height="137.8542858426884" width="395.52"><g><svg viewBox="0 0 680.6365593494183 237.22862764850998" height="137.8542858426884" width="395.52"><g><rect width="7.869035401541577" height="237.22862764850998" x="256.64795483389355" y="0" fill="#c10000" opacity="1" stroke-width="0" stroke="transparent" fill-opacity="1" class="rect-uu-0" data-fill-palette-color="primary" rx="1%" id="uu-0" data-palette-color="#c10000"></rect></g><g transform="matrix(1,0,0,1,285.1165593494183,0.5901209642997571)"><svg viewBox="0 0 395.52 236.04838571991047" height="236.04838571991047" width="395.52"><g><svg viewBox="0 0 395.52 236.04838571991047" height="236.04838571991047" width="395.52"><g><svg viewBox="0 0 395.52 188.85103011355255" height="188.85103011355255" width="395.52"><g transform="matrix(1,0,0,1,0,0)"><svg width="395.52" viewBox="3.0299999999999963 -36.04 166.34999999999997 76.05000000000001" height="188.85103011355255" data-palette-color="#c10000"><svg></svg><svg></svg><g class="undefined-text-0" data-fill-palette-color="primary" id="text-0"><path d="M21.61-11.28h4.51c-0.193 3.807-1.263 6.72-3.21 8.74-1.94 2.02-4.687 3.03-8.24 3.03v0c-3.56 0-6.39-1.357-8.49-4.07-2.1-2.707-3.15-6.38-3.15-11.02v0-6.44c0-4.627 1.077-8.283 3.23-10.97 2.16-2.687 5.103-4.03 8.83-4.03v0c3.433 0 6.09 1.03 7.97 3.09 1.88 2.06 2.9 5.003 3.06 8.83v0h-4.51c-0.2-2.9-0.81-4.967-1.83-6.2-1.027-1.24-2.59-1.86-4.69-1.86v0c-2.427 0-4.29 0.95-5.59 2.85-1.307 1.893-1.96 4.67-1.96 8.33v0 6.52c0 3.6 0.607 6.36 1.82 8.28 1.213 1.92 2.983 2.88 5.31 2.88 2.327 0 4.003-0.577 5.03-1.73 1.027-1.16 1.663-3.237 1.91-6.23zM55.44-35.55v35.55h-4.49v-16.43h-14.3v16.43h-4.47v-35.55h4.47v15.29h14.3v-15.29zM83.01 0l-2.81-9.28h-12.01l-2.76 9.28h-4.59l11.45-35.55h3.83l11.48 35.55zM74.19-29.3l-4.83 16.17h9.69zM110.06-35.55v3.86h-9.35v31.69h-4.47v-31.69h-9.33v-3.86z" fill="#c10000" fill-rule="nonzero" stroke="none" stroke-width="1" stroke-linecap="butt" stroke-linejoin="miter" stroke-miterlimit="10" stroke-dasharray="" stroke-dashoffset="0" font-family="none" font-weight="none" font-size="none" text-anchor="none" style="mix-blend-mode: normal" data-fill-palette-color="primary" opacity="1"></path><path transform="translate(0,39.52)" d="M20.31-19.53v3.83h-12.01v15.7h-4.47v-35.55h18.51v3.86h-14.04v12.16zM32.52-35.55v35.55h-4.47v-35.55zM62.6-17.7v13.28l-0.78 0.98c-2.247 2.62-5.537 3.93-9.87 3.93v0c-3.84 0-6.853-1.273-9.04-3.82-2.193-2.547-3.313-6.15-3.36-10.81v0-6.98c0-4.98 0.997-8.71 2.99-11.19 1.993-2.487 4.977-3.73 8.95-3.73v0c3.387 0 6.037 0.947 7.95 2.84 1.907 1.887 2.96 4.58 3.16 8.08v0h-4.47c-0.18-2.213-0.793-3.943-1.84-5.19-1.053-1.247-2.647-1.87-4.78-1.87v0c-2.553 0-4.423 0.833-5.61 2.5-1.187 1.673-1.807 4.34-1.86 8v0 7.25c0 3.58 0.683 6.327 2.05 8.24 1.367 1.913 3.33 2.87 5.89 2.87v0c2.407 0 4.237-0.587 5.49-1.76v0l0.66-0.61v-8.2h-6.49v-3.81zM86.6-35.55h4.49v25.27c-0.033 3.373-1.01 6.01-2.93 7.91-1.92 1.907-4.597 2.86-8.03 2.86v0c-3.52 0-6.207-0.933-8.06-2.8-1.853-1.86-2.797-4.517-2.83-7.97v0-25.27h4.44v25.1c0 2.393 0.51 4.18 1.53 5.36 1.013 1.18 2.653 1.77 4.92 1.77v0c2.273 0 3.92-0.59 4.94-1.77 1.02-1.18 1.53-2.967 1.53-5.36v0zM115.04 0l-6.32-14.38h-6.25v14.38h-4.5v-35.55h9.96c3.487 0 6.123 0.91 7.91 2.73 1.793 1.813 2.69 4.47 2.69 7.97v0c0 2.193-0.483 4.11-1.45 5.75-0.967 1.633-2.34 2.863-4.12 3.69v0l6.89 15.12v0.29zM102.47-31.69v13.48h5.42c1.867 0 3.36-0.603 4.48-1.81 1.113-1.207 1.67-2.817 1.67-4.83v0c0-4.56-2.067-6.84-6.2-6.84v0zM141.55-20.26v3.83h-12.57v12.6h14.65v3.83h-19.12v-35.55h18.87v3.86h-14.4v11.43zM164.87-8.98v0c0-1.78-0.48-3.14-1.44-4.08-0.96-0.947-2.693-1.867-5.2-2.76-2.507-0.893-4.423-1.833-5.75-2.82-1.327-0.987-2.32-2.11-2.98-3.37-0.66-1.26-0.99-2.703-0.99-4.33v0c0-2.82 0.94-5.14 2.82-6.96 1.88-1.827 4.343-2.74 7.39-2.74v0c2.08 0 3.933 0.47 5.56 1.41 1.627 0.933 2.88 2.23 3.76 3.89 0.88 1.66 1.32 3.483 1.32 5.47v0h-4.49c0-2.193-0.53-3.893-1.59-5.1-1.06-1.207-2.58-1.81-4.56-1.81v0c-1.807 0-3.207 0.507-4.2 1.52-0.993 1.007-1.49 2.42-1.49 4.24v0c0 1.5 0.537 2.753 1.61 3.76 1.073 1.013 2.733 1.917 4.98 2.71v0c3.5 1.16 6.003 2.587 7.51 4.28 1.5 1.693 2.25 3.907 2.25 6.64v0c0 2.88-0.933 5.187-2.8 6.92-1.873 1.733-4.42 2.6-7.64 2.6v0c-2.073 0-3.983-0.453-5.73-1.36-1.747-0.9-3.123-2.17-4.13-3.81-1-1.633-1.5-3.507-1.5-5.62v0h4.5c0 2.193 0.613 3.9 1.84 5.12 1.227 1.227 2.9 1.84 5.02 1.84v0c1.967 0 3.447-0.507 4.44-1.52 0.993-1.007 1.49-2.38 1.49-4.12z" fill="#c10000" fill-rule="nonzero" stroke="none" stroke-width="1" stroke-linecap="butt" stroke-linejoin="miter" stroke-miterlimit="10" stroke-dasharray="" stroke-dashoffset="0" font-family="none" font-weight="none" font-size="none" text-anchor="none" style="mix-blend-mode: normal" data-fill-palette-color="primary" opacity="1"></path></g></svg></g></svg></g><g transform="matrix(1,0,0,1,0,209.45059922753575)"><svg viewBox="0 0 395.52 26.59778649237473" height="26.59778649237473" width="395.52"><g transform="matrix(1,0,0,1,0,0)"><svg width="395.52" viewBox="2.45 -36.55 688.42 46.3" height="26.59778649237473" data-palette-color="#003c3b"><path d="M23.85-9.45L23.85-9.45Q23.85-4.95 20.63-2.27 17.4 0.4 12.15 0.4L12.15 0.4Q6.45 0.4 2.7-1.75L2.7-1.75 2.7-8.2Q7-5.1 12.1-5.1L12.1-5.1Q14.4-5.1 15.8-6.23 17.2-7.35 17.2-9.25L17.2-9.25Q17.2-10.15 16.85-10.85 16.5-11.55 15.43-12.25 14.35-12.95 13.78-13.25 13.2-13.55 11.4-14.35L11.4-14.35Q10.9-14.6 10.65-14.7L10.65-14.7Q8.8-15.55 7.65-16.23 6.5-16.9 5.15-18.05 3.8-19.2 3.13-20.8 2.45-22.4 2.45-24.45L2.45-24.45Q2.45-28.75 5.63-31.35 8.8-33.95 14.05-33.95L14.05-33.95Q18.8-33.95 22.25-32.3L22.25-32.3 22.25-26.2Q18.5-28.45 14.25-28.45L14.25-28.45Q11.9-28.45 10.58-27.4 9.25-26.35 9.25-24.7 9.25-23.05 10.68-21.98 12.1-20.9 14.95-19.6L14.95-19.6Q16.95-18.7 18.2-18.03 19.45-17.35 20.93-16.15 22.4-14.95 23.13-13.28 23.85-11.6 23.85-9.45ZM47.5-6.3L47.5-1.1Q44.85 0.45 40.9 0.45L40.9 0.45Q35.05 0.45 31.42-3.25 27.8-6.95 27.8-12.6L27.8-12.6Q27.85-18.15 31.42-21.95 35-25.75 41.2-25.75L41.2-25.75Q44.9-25.75 47.5-24.35L47.5-24.35 47.5-19.05Q45-20.65 41.8-20.65L41.8-20.65Q38.3-20.65 36.15-18.45 34-16.25 33.95-12.6L33.95-12.6Q34.05-9 36.12-6.8 38.2-4.6 41.75-4.6L41.75-4.6Q44.85-4.6 47.5-6.3L47.5-6.3ZM58.9-25.35L58.9 0 52.9 0 52.9-25.35 58.9-25.35ZM59.5-32.95L59.5-32.95Q59.5-31.4 58.45-30.35 57.4-29.3 55.9-29.3 54.4-29.3 53.35-30.35 52.3-31.4 52.3-32.95L52.3-32.95Q52.3-34.45 53.35-35.5 54.4-36.55 55.9-36.55 57.4-36.55 58.45-35.5 59.5-34.45 59.5-32.95ZM84.99-6.6L84.99-1.4Q82.34 0.25 77.34 0.25L77.34 0.25Q71.29 0.25 67.79-3.35 64.29-6.95 64.29-12.65L64.29-12.65Q64.29-18.7 67.59-22.15 70.89-25.6 75.84-25.6 80.79-25.6 83.69-22.6 86.59-19.6 86.59-13.85L86.59-13.85Q86.59-12.45 86.24-10.25L86.24-10.25 70.34-10.25Q70.99-7.5 73.07-6.05 75.14-4.6 78.24-4.6L78.24-4.6Q82.24-4.6 84.99-6.6L84.99-6.6ZM75.99-20.9L75.99-20.9Q73.84-20.9 72.27-19.33 70.69-17.75 70.24-14.75L70.24-14.75 80.89-14.75 80.89-15.5Q80.79-17.95 79.57-19.43 78.34-20.9 75.99-20.9ZM114.09-16.85L114.09 0 108.09 0 108.09-15.6Q108.09-18.1 106.89-19.38 105.69-20.65 103.64-20.65L103.64-20.65Q101.29-20.65 99.69-18.82 98.09-17 98.09-13.6L98.09-13.6 98.09 0 92.09 0 92.09-25.35 98.09-25.35 98.09-21Q100.24-25.65 105.89-25.65L105.89-25.65Q109.69-25.65 111.89-23.35 114.09-21.05 114.09-16.85L114.09-16.85ZM134.34-5.75L134.34-0.6Q132.59 0.25 129.84 0.25L129.84 0.25Q121.64 0.25 121.64-8.05L121.64-8.05 121.64-20.85 117.84-20.85 117.84-25.35 121.64-25.35 121.64-31.45 127.64-31.45 127.64-25.35 133.94-25.35 133.94-20.85 127.64-20.85 127.64-7.95Q127.64-6.35 128.49-5.53 129.34-4.7 130.84-4.7L130.84-4.7Q132.74-4.7 134.34-5.75L134.34-5.75ZM145.53-25.35L145.53 0 139.53 0 139.53-25.35 145.53-25.35ZM146.13-32.95L146.13-32.95Q146.13-31.4 145.09-30.35 144.03-29.3 142.53-29.3 141.03-29.3 139.98-30.35 138.94-31.4 138.94-32.95L138.94-32.95Q138.94-34.45 139.98-35.5 141.03-36.55 142.53-36.55 144.03-36.55 145.09-35.5 146.13-34.45 146.13-32.95ZM165.28-25.35L165.28-20.85 160.23-20.85 160.23 0 154.23 0 154.23-20.85 150.53-20.85 150.53-25.35 154.23-25.35 154.23-26.85Q154.23-31.1 156.58-33.5 158.93-35.9 163.08-35.9L163.08-35.9Q164.98-35.9 166.38-35.45L166.38-35.45 166.38-30.4Q165.08-30.9 163.88-30.9L163.88-30.9Q160.23-30.9 160.23-26.8L160.23-26.8 160.23-25.35 165.28-25.35ZM175.53-25.35L175.53 0 169.53 0 169.53-25.35 175.53-25.35ZM176.13-32.95L176.13-32.95Q176.13-31.4 175.08-30.35 174.03-29.3 172.53-29.3 171.03-29.3 169.98-30.35 168.93-31.4 168.93-32.95L168.93-32.95Q168.93-34.45 169.98-35.5 171.03-36.55 172.53-36.55 174.03-36.55 175.08-35.5 176.13-34.45 176.13-32.95ZM200.63-6.3L200.63-1.1Q197.98 0.45 194.03 0.45L194.03 0.45Q188.18 0.45 184.55-3.25 180.93-6.95 180.93-12.6L180.93-12.6Q180.98-18.15 184.55-21.95 188.13-25.75 194.33-25.75L194.33-25.75Q198.03-25.75 200.63-24.35L200.63-24.35 200.63-19.05Q198.13-20.65 194.93-20.65L194.93-20.65Q191.43-20.65 189.28-18.45 187.13-16.25 187.08-12.6L187.08-12.6Q187.18-9 189.25-6.8 191.33-4.6 194.88-4.6L194.88-4.6Q197.98-4.6 200.63-6.3L200.63-6.3ZM236.12-18.6L236.12-13.45 224.42-13.45 224.42 0 218.07 0 218.07-33.7 237.82-33.7 237.82-28.55 224.42-28.55 224.42-18.6 236.12-18.6ZM249.02-25.35L249.02 0 243.02 0 243.02-25.35 249.02-25.35ZM249.62-32.95L249.62-32.95Q249.62-31.4 248.57-30.35 247.52-29.3 246.02-29.3 244.52-29.3 243.47-30.35 242.42-31.4 242.42-32.95L242.42-32.95Q242.42-34.45 243.47-35.5 244.52-36.55 246.02-36.55 247.52-36.55 248.57-35.5 249.62-34.45 249.62-32.95ZM278.12-25.35L278.12-2.3Q278.12 3.7 274.64 6.73 271.17 9.75 265.82 9.75L265.82 9.75Q260.82 9.75 257.07 7.95L257.07 7.95 257.07 1.85Q260.47 4.25 265.22 4.25L265.22 4.25Q272.12 4.25 272.12-2.35L272.12-2.35 272.12-4.55Q269.82-0.8 264.92-0.8L264.92-0.8Q260.67-0.8 257.64-3.93 254.62-7.05 254.62-13L254.62-13Q254.62-18.5 257.49-22.08 260.37-25.65 265.07-25.65L265.07-25.65Q269.82-25.65 272.12-21.7L272.12-21.7 272.12-25.35 278.12-25.35ZM260.87-13L260.87-13Q260.87-9.45 262.42-7.58 263.97-5.7 266.37-5.7L266.37-5.7Q268.82-5.7 270.47-7.63 272.12-9.55 272.12-12.65L272.12-12.65Q272.12-16.7 270.52-18.6 268.92-20.5 266.47-20.5L266.47-20.5Q263.87-20.5 262.37-18.48 260.87-16.45 260.87-13ZM306.07-25.35L306.07 0 300.02 0 300.02-4.15Q298.02 0.25 292.22 0.25L292.22 0.25Q288.37 0.25 286.22-1.95 284.07-4.15 284.07-8.2L284.07-8.2 284.07-25.35 290.07-25.35 290.07-9.6Q290.07-7.2 291.24-5.95 292.42-4.7 294.47-4.7L294.47-4.7Q297.07-4.7 298.54-6.45 300.02-8.2 300.02-11.75L300.02-11.75 300.02-25.35 306.07-25.35ZM318.56-13.1L318.56 0 312.51 0 312.56-25.35 318.56-25.35 318.56-20.85Q320.31-25.55 324.96-25.55L324.96-25.55Q326.01-25.55 326.66-25.4L326.66-25.4 326.66-19.6Q325.51-20.1 324.11-20.1L324.11-20.1Q321.66-20.1 320.11-18.1 318.56-16.1 318.56-13.1L318.56-13.1ZM349.56-6.6L349.56-1.4Q346.91 0.25 341.91 0.25L341.91 0.25Q335.86 0.25 332.36-3.35 328.86-6.95 328.86-12.65L328.86-12.65Q328.86-18.7 332.16-22.15 335.46-25.6 340.41-25.6 345.36-25.6 348.26-22.6 351.16-19.6 351.16-13.85L351.16-13.85Q351.16-12.45 350.81-10.25L350.81-10.25 334.91-10.25Q335.56-7.5 337.64-6.05 339.71-4.6 342.81-4.6L342.81-4.6Q346.81-4.6 349.56-6.6L349.56-6.6ZM340.56-20.9L340.56-20.9Q338.41-20.9 336.84-19.33 335.26-17.75 334.81-14.75L334.81-14.75 345.46-14.75 345.46-15.5Q345.36-17.95 344.14-19.43 342.91-20.9 340.56-20.9ZM395.11-33.7L395.11-12.95Q395.11-6.4 391.58-2.98 388.06 0.45 381.91 0.45L381.91 0.45Q375.91 0.45 372.33-2.93 368.76-6.3 368.76-12.6L368.76-12.6 368.76-33.7 375.06-33.7 375.06-12.65Q375.06-8.8 376.96-7.08 378.86-5.35 381.91-5.35L381.91-5.35Q388.81-5.35 388.81-12.9L388.81-12.9 388.81-33.7 395.11-33.7ZM423.65-16.85L423.65 0 417.65 0 417.65-15.6Q417.65-18.1 416.45-19.38 415.25-20.65 413.2-20.65L413.2-20.65Q410.85-20.65 409.25-18.82 407.65-17 407.65-13.6L407.65-13.6 407.65 0 401.65 0 401.65-25.35 407.65-25.35 407.65-21Q409.8-25.65 415.45-25.65L415.45-25.65Q419.25-25.65 421.45-23.35 423.65-21.05 423.65-16.85L423.65-16.85ZM434.7-12.55L434.7-12.55Q434.7-9.1 436.45-6.95 438.2-4.8 440.8-4.8L440.8-4.8Q443.5-4.8 445.3-6.88 447.1-8.95 447.1-12.9L447.1-12.9Q447.1-16.75 445.2-18.68 443.3-20.6 440.85-20.6L440.85-20.6Q438.25-20.6 436.48-18.48 434.7-16.35 434.7-12.55ZM453.1-35.35L453.1 0 447.1 0 447.1-3.95Q444.5 0.35 439.4 0.35L439.4 0.35Q434.4 0.35 431.48-3.45 428.55-7.25 428.55-12.65L428.55-12.65Q428.55-18.65 431.63-22.18 434.7-25.7 439.5-25.7L439.5-25.7Q444.45-25.7 447.1-21.45L447.1-21.45 447.1-35.35 453.1-35.35ZM478.95-6.6L478.95-1.4Q476.3 0.25 471.3 0.25L471.3 0.25Q465.25 0.25 461.75-3.35 458.25-6.95 458.25-12.65L458.25-12.65Q458.25-18.7 461.55-22.15 464.85-25.6 469.8-25.6 474.75-25.6 477.65-22.6 480.55-19.6 480.55-13.85L480.55-13.85Q480.55-12.45 480.2-10.25L480.2-10.25 464.3-10.25Q464.95-7.5 467.02-6.05 469.1-4.6 472.2-4.6L472.2-4.6Q476.2-4.6 478.95-6.6L478.95-6.6ZM469.95-20.9L469.95-20.9Q467.8-20.9 466.22-19.33 464.65-17.75 464.2-14.75L464.2-14.75 474.85-14.75 474.85-15.5Q474.75-17.95 473.52-19.43 472.3-20.9 469.95-20.9ZM492.05-13.1L492.05 0 486 0 486.05-25.35 492.05-25.35 492.05-20.85Q493.8-25.55 498.44-25.55L498.44-25.55Q499.5-25.55 500.15-25.4L500.15-25.4 500.15-19.6Q499-20.1 497.6-20.1L497.6-20.1Q495.15-20.1 493.6-18.1 492.05-16.1 492.05-13.1L492.05-13.1ZM520.24-7.3L520.24-7.3Q520.24-3.75 517.69-1.75 515.14 0.25 510.89 0.25L510.89 0.25Q506.19 0.25 503.29-1.3L503.29-1.3 503.29-6.8Q506.64-4.55 510.54-4.55L510.54-4.55Q512.19-4.55 513.12-5.18 514.04-5.8 514.04-6.9L514.04-6.9Q514.04-7.55 513.74-8.08 513.44-8.6 512.59-9.1 511.74-9.6 511.27-9.83 510.79-10.05 509.39-10.65L509.39-10.65Q509.24-10.7 509.17-10.75 509.09-10.8 508.94-10.85 508.79-10.9 508.69-10.95L508.69-10.95Q503.14-13.45 503.14-18.15L503.14-18.15Q503.14-21.65 505.79-23.65 508.44-25.65 512.44-25.65L512.44-25.65Q516.29-25.65 518.84-24.55L518.84-24.55 518.84-19.25Q516.34-20.75 512.59-20.75L512.59-20.75Q511.04-20.75 510.17-20.08 509.29-19.4 509.29-18.35L509.29-18.35Q509.29-17.95 509.42-17.6 509.54-17.25 509.87-16.93 510.19-16.6 510.49-16.35 510.79-16.1 511.34-15.83 511.89-15.55 512.29-15.35 512.69-15.15 513.39-14.85 514.09-14.55 514.49-14.35L514.49-14.35Q517.14-13.05 518.69-11.45 520.24-9.85 520.24-7.3ZM539.04-5.75L539.04-0.6Q537.29 0.25 534.54 0.25L534.54 0.25Q526.34 0.25 526.34-8.05L526.34-8.05 526.34-20.85 522.54-20.85 522.54-25.35 526.34-25.35 526.34-31.45 532.34-31.45 532.34-25.35 538.64-25.35 538.64-20.85 532.34-20.85 532.34-7.95Q532.34-6.35 533.19-5.53 534.04-4.7 535.54-4.7L535.54-4.7Q537.44-4.7 539.04-5.75L539.04-5.75ZM552.69-4.25L552.69-4.25Q554.69-4.25 555.81-5.43 556.94-6.6 556.94-8.5L556.94-8.5 556.94-10.9 553.84-10.9Q551.49-10.9 550.24-9.93 548.99-8.95 548.99-7.45L548.99-7.45Q548.99-4.25 552.69-4.25ZM557.19 0L557.19-3.05Q555.44 0.2 550.59 0.2L550.59 0.2Q546.99 0.2 544.86-1.9 542.74-4 542.74-7.2L542.74-7.2Q542.74-10.8 545.44-12.85 548.14-14.9 553.24-14.9L553.24-14.9 556.94-14.9 556.94-16.45Q556.94-18.55 555.84-19.65 554.74-20.75 552.09-20.75L552.09-20.75Q548.04-20.75 544.64-18.5L544.64-18.5 544.64-24.05Q547.49-25.8 552.84-25.8L552.84-25.8Q563.14-25.8 563.14-16.2L563.14-16.2 563.14 0 557.19 0ZM591.33-16.85L591.33 0 585.33 0 585.33-15.6Q585.33-18.1 584.13-19.38 582.93-20.65 580.88-20.65L580.88-20.65Q578.53-20.65 576.93-18.82 575.33-17 575.33-13.6L575.33-13.6 575.33 0 569.33 0 569.33-25.35 575.33-25.35 575.33-21Q577.48-25.65 583.13-25.65L583.13-25.65Q586.93-25.65 589.13-23.35 591.33-21.05 591.33-16.85L591.33-16.85ZM602.38-12.55L602.38-12.55Q602.38-9.1 604.13-6.95 605.88-4.8 608.48-4.8L608.48-4.8Q611.18-4.8 612.98-6.88 614.78-8.95 614.78-12.9L614.78-12.9Q614.78-16.75 612.88-18.68 610.98-20.6 608.53-20.6L608.53-20.6Q605.93-20.6 604.16-18.48 602.38-16.35 602.38-12.55ZM620.78-35.35L620.78 0 614.78 0 614.78-3.95Q612.18 0.35 607.08 0.35L607.08 0.35Q602.08 0.35 599.16-3.45 596.23-7.25 596.23-12.65L596.23-12.65Q596.23-18.65 599.31-22.18 602.38-25.7 607.18-25.7L607.18-25.7Q612.13-25.7 614.78-21.45L614.78-21.45 614.78-35.35 620.78-35.35ZM633.53-25.35L633.53 0 627.53 0 627.53-25.35 633.53-25.35ZM634.13-32.95L634.13-32.95Q634.13-31.4 633.08-30.35 632.03-29.3 630.53-29.3 629.03-29.3 627.98-30.35 626.93-31.4 626.93-32.95L626.93-32.95Q626.93-34.45 627.98-35.5 629.03-36.55 630.53-36.55 632.03-36.55 633.08-35.5 634.13-34.45 634.13-32.95ZM662.28-16.85L662.28 0 656.28 0 656.28-15.6Q656.28-18.1 655.08-19.38 653.88-20.65 651.83-20.65L651.83-20.65Q649.48-20.65 647.88-18.82 646.28-17 646.28-13.6L646.28-13.6 646.28 0 640.28 0 640.28-25.35 646.28-25.35 646.28-21Q648.43-25.65 654.08-25.65L654.08-25.65Q657.88-25.65 660.08-23.35 662.28-21.05 662.28-16.85L662.28-16.85ZM690.87-25.35L690.87-2.3Q690.87 3.7 687.4 6.73 683.92 9.75 678.57 9.75L678.57 9.75Q673.57 9.75 669.82 7.95L669.82 7.95 669.82 1.85Q673.22 4.25 677.97 4.25L677.97 4.25Q684.87 4.25 684.87-2.35L684.87-2.35 684.87-4.55Q682.57-0.8 677.67-0.8L677.67-0.8Q673.42-0.8 670.4-3.93 667.37-7.05 667.37-13L667.37-13Q667.37-18.5 670.25-22.08 673.12-25.65 677.82-25.65L677.82-25.65Q682.57-25.65 684.87-21.7L684.87-21.7 684.87-25.35 690.87-25.35ZM673.62-13L673.62-13Q673.62-9.45 675.17-7.58 676.72-5.7 679.12-5.7L679.12-5.7Q681.57-5.7 683.22-7.63 684.87-9.55 684.87-12.65L684.87-12.65Q684.87-16.7 683.27-18.6 681.67-20.5 679.22-20.5L679.22-20.5Q676.62-20.5 675.12-18.48 673.62-16.45 673.62-13Z" opacity="1" transform="matrix(1,0,0,1,0,0)" fill="#003c3b" class="undefined-text-1" data-fill-palette-color="secondary" id="text-1"></path></svg></g></svg></g></svg></g></svg></g><g transform="matrix(1,0,0,1,0,0.5901209642997571)"><svg viewBox="0 0 236.04838571991039 236.04838571991047" height="236.04838571991047" width="236.04838571991039"><g><svg xmlns="http://www.w3.org/2000/svg" xmlns:xlink="http://www.w3.org/1999/xlink" version="1.1" x="0" y="0" viewBox="11.026000000000003 11.026 77.94899999999998 77.94900000000001" enable-background="new 0 0 100 100" xml:space="preserve" height="236.04838571991047" width="236.04838571991039" class="icon-icon-0" data-fill-palette-color="accent" id="icon-0"><g fill="#003c3b" data-fill-palette-color="accent"><path d="M34.815 50c1.647 1.604 3.732 3.211 6.131 4.7-0.137-1.511-0.21-3.081-0.21-4.7 0-1.619 0.073-3.189 0.21-4.7C38.547 46.789 36.463 48.394 34.815 50z" fill="#003c3b" data-fill-palette-color="accent"></path><path d="M41.072 44.085c0.22-1.886 0.541-3.664 0.952-5.3-1.281-0.181-2.509-0.279-3.652-0.279-2.971 0-5.194 0.611-6.461 1.745 0.175 0.259 0.279 0.569 0.279 0.906 0 0.842-0.65 1.526-1.474 1.597-0.075 1.886 1.179 4.189 3.401 6.536C35.955 47.497 38.312 45.72 41.072 44.085z" fill="#003c3b" data-fill-palette-color="accent"></path><path d="M34.117 50.711c-2.758 2.913-4.029 5.761-3.11 7.825 0.85 1.907 3.465 2.958 7.365 2.958 1.143 0 2.371-0.099 3.652-0.279-0.411-1.637-0.732-3.413-0.951-5.301C38.312 54.28 35.955 52.504 34.117 50.711z" fill="#003c3b" data-fill-palette-color="accent"></path><path d="M57.096 38.012c-1.554-5.398-4.101-8.999-6.916-8.999s-5.361 3.601-6.916 8.999c2.212 0.382 4.541 0.996 6.916 1.834C52.555 39.008 54.884 38.394 57.096 38.012z" fill="#003c3b" data-fill-palette-color="accent"></path><path d="M50.18 40.869c-1.152 0.413-2.307 0.866-3.453 1.376-1.673 0.745-3.263 1.564-4.746 2.431-0.189 1.708-0.291 3.493-0.291 5.325 0 1.831 0.102 3.616 0.291 5.325 1.482 0.865 3.072 1.685 4.747 2.43 1.145 0.51 2.299 0.963 3.451 1.376 1.152-0.413 2.308-0.866 3.454-1.377 1.673-0.744 3.261-1.563 4.745-2.431 0.188-1.707 0.29-3.492 0.29-5.323 0-1.833-0.103-3.618-0.29-5.326-1.496-0.868-3.08-1.688-4.745-2.43C52.487 41.734 51.333 41.281 50.18 40.869zM50.18 52.808c-1.551 0-2.809-1.258-2.809-2.808 0-1.551 1.257-2.809 2.809-2.809s2.808 1.257 2.808 2.809C52.988 51.55 51.731 52.808 50.18 52.808z" fill="#003c3b" data-fill-palette-color="accent"></path><path d="M48.74 40.38c-1.964-0.635-3.894-1.118-5.73-1.433-0.362 1.411-0.659 2.93-0.878 4.528 1.323-0.739 2.729-1.445 4.207-2.104C47.14 41.015 47.94 40.689 48.74 40.38z" fill="#003c3b" data-fill-palette-color="accent"></path><path d="M46.338 58.628c-1.479-0.658-2.882-1.364-4.207-2.104 0.219 1.6 0.516 3.117 0.878 4.528 1.835-0.313 3.766-0.797 5.729-1.432C47.94 59.311 47.14 58.984 46.338 58.628z" fill="#003c3b" data-fill-palette-color="accent"></path><path d="M54.021 41.372c1.463 0.651 2.869 1.36 4.208 2.11-0.219-1.601-0.517-3.122-0.879-4.536-1.837 0.315-3.767 0.798-5.73 1.434C52.419 40.689 53.219 41.015 54.021 41.372z" fill="#003c3b" data-fill-palette-color="accent"></path><path d="M69.421 43.97c0.033 0 0.064 0.008 0.099 0.01 0.208-0.918 0.166-1.77-0.167-2.516-0.849-1.908-3.465-2.959-7.364-2.959-1.143 0-2.37 0.099-3.652 0.28 0.412 1.639 0.733 3.419 0.952 5.309 2.692 1.6 5.059 3.371 6.941 5.209 0.827-0.872 1.518-1.736 2.059-2.578-0.294-0.292-0.479-0.696-0.479-1.144C67.81 44.691 68.532 43.97 69.421 43.97z" fill="#003c3b" data-fill-palette-color="accent"></path><path d="M65.555 49.991c-1.688-1.648-3.769-3.242-6.142-4.704 0.137 1.515 0.211 3.09 0.211 4.713 0 1.619-0.073 3.189-0.21 4.7C61.817 53.207 63.904 51.6 65.555 49.991z" fill="#003c3b" data-fill-palette-color="accent"></path><path d="M50 11.026c-21.525 0-38.974 17.449-38.974 38.974 0 12.283 5.688 23.232 14.567 30.376l-14.567 8.599H50c21.525 0 38.975-17.449 38.975-38.975C88.975 28.475 71.523 11.026 50 11.026zM66.972 50.053c3.155 3.346 4.311 6.497 3.253 8.871-1.012 2.272-3.937 3.524-8.236 3.524-1.232 0-2.542-0.106-3.902-0.3-0.724 2.575-1.678 4.754-2.797 6.401 0.164 0.253 0.263 0.554 0.263 0.878 0 0.889-0.723 1.61-1.611 1.61-0.274 0-0.527-0.074-0.753-0.193-0.94 0.711-1.951 1.098-3.007 1.098-3.348 0-6.234-3.854-7.907-9.794-1.359 0.193-2.668 0.3-3.9 0.3-4.3 0-7.225-1.252-8.238-3.524-1.101-2.473 0.225-5.696 3.281-8.924-2.483-2.624-3.824-5.243-3.648-7.46-0.477-0.28-0.8-0.792-0.8-1.384 0-0.89 0.721-1.611 1.611-1.611 0.203 0 0.396 0.042 0.575 0.11 1.438-1.367 3.923-2.104 7.219-2.104 1.232 0 2.542 0.108 3.9 0.301 1.673-5.941 4.56-9.794 7.907-9.794 3.346 0 6.235 3.853 7.906 9.794 1.36-0.194 2.67-0.302 3.902-0.302 4.3 0 7.226 1.252 8.236 3.525 0.438 0.982 0.487 2.084 0.202 3.257 0.366 0.295 0.605 0.742 0.605 1.249 0 0.89-0.721 1.611-1.611 1.611-0.085 0-0.166-0.012-0.248-0.025-0.585 0.935-1.335 1.891-2.24 2.845C66.945 50.025 66.959 50.04 66.972 50.053z" fill="#003c3b" data-fill-palette-color="accent"></path><path d="M66.261 50.691c-1.841 1.8-4.203 3.583-6.974 5.223-0.219 1.887-0.54 3.664-0.951 5.301 1.282 0.181 2.51 0.279 3.652 0.279 3.899 0 6.516-1.05 7.363-2.958 0.878-1.972-0.242-4.825-3.074-7.828C66.273 50.704 66.266 50.698 66.261 50.691z" fill="#003c3b" data-fill-palette-color="accent"></path><path d="M43.264 61.986c1.554 5.399 4.101 9.001 6.916 9.001 0.802 0 1.582-0.303 2.324-0.846-0.108-0.216-0.175-0.456-0.175-0.714 0-0.891 0.721-1.611 1.611-1.611 0.205 0 0.399 0.042 0.579 0.112 1.01-1.528 1.89-3.56 2.576-5.942-2.212-0.381-4.541-0.995-6.917-1.832C47.805 60.991 45.476 61.605 43.264 61.986z" fill="#003c3b" data-fill-palette-color="accent"></path><path d="M51.62 59.62c1.964 0.635 3.894 1.118 5.73 1.432 0.362-1.411 0.658-2.929 0.878-4.528-1.324 0.739-2.729 1.445-4.207 2.104C53.219 58.984 52.419 59.311 51.62 59.62z" fill="#003c3b" data-fill-palette-color="accent"></path></g></svg></g></svg></g></svg></g><defs></defs></svg><rect width="395.52" height="137.8542858426884" fill="none" stroke="none" visibility="hidden"></rect></g></svg></g></svg>